<svg width="10" height="16" viewBox="0 0 10 16" fill="none" xmlns="http://www.w3.org/2000/svg">
<path d="M4.5348 15.4545V0.90909H5.46662V15.4545H4.5348ZM7.67116 5.27273C7.60298 4.69697 7.32647 4.25 6.84162 3.93182C6.35677 3.61364 5.76207 3.45455 5.05753 3.45455C4.54238 3.45455 4.09162 3.53788 3.70526 3.70455C3.32268 3.87121 3.02344 4.10038 2.80753 4.39205C2.59541 4.68371 2.48935 5.01515 2.48935 5.38636C2.48935 5.69697 2.56321 5.96401 2.71094 6.1875C2.86245 6.4072 3.05563 6.59091 3.29048 6.73864C3.52533 6.88258 3.77154 7.00189 4.02912 7.09659C4.2867 7.1875 4.52344 7.26136 4.73935 7.31818L5.92116 7.63636C6.2242 7.71591 6.56132 7.82576 6.93253 7.96591C7.30753 8.10606 7.66548 8.29735 8.00639 8.53977C8.35109 8.77841 8.63518 9.08523 8.85867 9.46023C9.08215 9.83523 9.19389 10.2955 9.19389 10.8409C9.19389 11.4697 9.02912 12.0379 8.69957 12.5455C8.37382 13.053 7.89654 13.4564 7.26776 13.7557C6.64276 14.0549 5.88329 14.2045 4.98935 14.2045C4.15601 14.2045 3.43442 14.0701 2.82457 13.8011C2.21851 13.5322 1.74124 13.1572 1.39276 12.6761C1.04806 12.1951 0.852983 11.6364 0.807528 11H2.26207C2.29995 11.4394 2.44768 11.803 2.70526 12.0909C2.96662 12.375 3.29616 12.5871 3.69389 12.7273C4.09541 12.8636 4.52723 12.9318 4.98935 12.9318C5.52723 12.9318 6.01018 12.8447 6.43821 12.6705C6.86624 12.4924 7.20526 12.2462 7.45526 11.9318C7.70526 11.6136 7.83026 11.2424 7.83026 10.8182C7.83026 10.4318 7.7223 10.1174 7.50639 9.875C7.29048 9.63258 7.00639 9.43561 6.65412 9.28409C6.30185 9.13258 5.92116 9 5.51207 8.88636L4.08026 8.47727C3.17116 8.21591 2.45147 7.8428 1.92116 7.35795C1.39086 6.87311 1.12571 6.23864 1.12571 5.45455C1.12571 4.80303 1.30185 4.23485 1.65412 3.75C2.01018 3.26136 2.48745 2.88258 3.08594 2.61364C3.68821 2.34091 4.36056 2.20455 5.10298 2.20455C5.85298 2.20455 6.51965 2.33901 7.10298 2.60795C7.68632 2.87311 8.14844 3.23674 8.48935 3.69886C8.83404 4.16098 9.01586 4.68561 9.0348 5.27273H7.67116Z" fill="#B3B3B3"/>
</svg>
