<svg width="131" height="36" viewBox="0 0 131 36" fill="none" xmlns="http://www.w3.org/2000/svg">
<path d="M18.3058 9.36778L18.2961 9.37028L14.5079 10.4019L14.5037 10.3532L14.4998 10.4019L10.7019 9.36778C10.7019 9.36778 9.96902 7.91251 9.72425 6.30528C9.72425 6.30473 9.72397 6.30417 9.72397 6.30361C9.71369 6.23638 9.70425 6.16859 9.69591 6.1008C9.63479 5.61071 9.6234 5.11201 9.69536 4.64026C9.75676 3.829 11.4226 0.405886 14.4695 0.247246V0.242801C14.4798 0.243356 14.4896 0.244746 14.4998 0.245023C14.5098 0.245023 14.5198 0.243356 14.5301 0.242801V0.247246C17.4418 0.39894 19.0926 3.532 19.2868 4.51746C19.2868 4.51801 19.2868 4.51829 19.2868 4.51885C19.2971 4.55691 19.3054 4.59747 19.3121 4.64026C19.6313 6.73452 18.3055 9.36778 18.3055 9.36778H18.3058Z" fill="#613FDD"/>
<path d="M28.9094 20.442C28.7277 21.286 28.1206 22.0131 27.351 22.4043C26.5812 22.7952 25.666 22.8621 24.8278 22.6549C24.5061 22.5754 24.1869 22.4529 23.9354 22.2367C23.4676 21.8342 23.3117 21.1096 23.5731 20.5501C23.8343 19.9905 24.4897 19.6449 25.099 19.7452C25.7082 19.8455 26.2183 20.3834 26.2864 20.9971C26.2914 21.0418 26.2975 21.0932 26.335 21.1185C26.3628 21.1374 26.3995 21.1354 26.4328 21.131C26.7959 21.0857 27.1385 20.8737 27.3269 20.5601C27.5155 20.2464 27.54 19.836 27.3749 19.5093C27.1874 19.1373 26.7879 18.91 26.3809 18.8214C25.9736 18.7325 25.5516 18.7617 25.1351 18.7781C24.1257 18.8172 23.1053 18.7761 22.1248 18.5325C19.5988 17.9049 17.0734 15.8036 16.0865 13.3777C15.3831 11.6482 14.654 11.4679 14.4998 11.4492C14.3454 11.4679 13.6163 11.6482 12.9129 13.3777C11.926 15.8036 9.40059 17.9049 6.87458 18.5325C5.8944 18.7761 4.87394 18.8172 3.86432 18.7781C3.44813 18.7617 3.02583 18.7325 2.61881 18.8214C2.21152 18.91 1.81228 19.1373 1.62447 19.5093C1.45972 19.836 1.48389 20.2464 1.67253 20.5601C1.86118 20.8737 2.20346 21.0857 2.56658 21.131C2.59992 21.1354 2.63659 21.1374 2.66465 21.1185C2.70188 21.0932 2.70827 21.0418 2.71327 20.9971C2.78106 20.3834 3.29116 19.8455 3.90043 19.7452C4.50971 19.6449 5.1651 19.9905 5.42654 20.5501C5.6877 21.1096 5.53212 21.8342 5.06398 22.2367C4.81254 22.4529 4.4936 22.5754 4.17159 22.6549C3.33366 22.8621 2.41822 22.7952 1.64864 22.4043C0.878778 22.0131 0.271724 21.286 0.0900247 20.442C-0.0916747 19.5979 0.182263 18.655 0.83238 18.0868C1.38442 17.6048 2.13817 17.4209 2.86886 17.3681C4.51082 17.2497 6.21224 17.4851 7.75224 16.756C9.84372 15.7661 11.5763 13.6252 11.6588 12.5856C11.7413 11.5459 11.3948 10.4735 10.7019 9.36776L14.4998 10.4018L14.5037 10.3532L14.5079 10.4018L18.2961 9.37026C17.604 10.4752 17.2581 11.5468 17.3406 12.5856C17.4231 13.6252 19.1557 15.7661 21.2472 16.756C22.7872 17.4851 24.4889 17.2497 26.1305 17.3681C26.8615 17.4209 27.6153 17.6048 28.167 18.0868C28.8171 18.655 29.0911 19.5979 28.9094 20.442Z" fill="#613FDD"/>
<path d="M19.3921 30.5327C18.5884 30.5327 17.9369 31.1842 17.9369 31.988C17.9369 32.7917 18.5884 33.4432 19.3921 33.4432C19.4382 33.4432 19.4838 33.4405 19.5288 33.4363C19.4296 34.0175 18.9234 34.4618 18.3144 34.4618C17.6343 34.4618 17.0809 33.9083 17.0809 33.2282V16.2977C16.5302 15.7309 16.0988 15.1741 15.7856 14.7218V33.2279C15.7856 34.6223 16.92 35.7567 18.3144 35.7567C19.7089 35.7567 20.8432 34.6223 20.8432 33.2279V32.0694C20.8446 32.0422 20.8474 32.0152 20.8474 31.9877C20.8474 31.184 20.1959 30.5324 19.3921 30.5324V30.5327Z" fill="#613FDD"/>
<path d="M20.9225 24.3697C20.129 24.3697 19.4858 25.0128 19.4858 25.8063C19.4858 26.5998 20.129 27.243 20.9225 27.243C20.9267 27.243 20.9308 27.2424 20.935 27.2424C20.7805 27.513 20.4894 27.6964 20.156 27.6964C19.6614 27.6964 19.2589 27.2941 19.2589 26.7995V18.0321C18.7857 17.7521 18.354 17.4406 17.9636 17.1164V26.7993C17.9636 28.0081 18.9471 28.9916 20.156 28.9916C21.3648 28.9916 22.3483 28.0081 22.3483 26.7993V25.9755C22.3547 25.9199 22.3591 25.8635 22.3591 25.8063C22.3591 25.0128 21.716 24.3697 20.9225 24.3697Z" fill="#613FDD"/>
<path d="M17.9412 11.142C17.6378 12.3816 18.1051 13.6758 19.0884 14.4895C19.529 14.8543 20.0433 15.213 20.6406 15.54C22.0133 16.2918 23.7653 16.5127 25.3492 16.5127C25.9921 16.5127 26.6072 16.4763 27.1582 16.4243C28.3314 16.3137 29.1824 15.2388 28.9663 14.0192C28.9207 13.7622 28.8229 13.5152 28.6793 13.2974C28.2809 12.6934 27.6307 12.3502 26.9373 12.3633L25.9921 12.3761C25.8479 12.3614 25.6971 12.37 25.5418 12.4105C25.0228 12.5456 24.6363 13.0079 24.5983 13.543C24.5452 14.2845 25.1311 14.9024 25.8613 14.9024C26.5464 14.9024 27.1032 14.3578 27.1257 13.6783C27.2598 13.7083 27.384 13.7727 27.4843 13.8716C27.6263 14.0116 27.7046 14.1989 27.7046 14.3984C27.7046 14.7823 27.4174 15.0988 27.0367 15.1349C25.6223 15.2685 22.9916 15.3508 21.2629 14.4042C18.9931 13.1612 18.111 11.379 17.9646 11.0525C17.9568 11.0814 17.949 11.1114 17.9415 11.1422L17.9412 11.142Z" fill="#613FDD"/>
<path d="M11.9187 33.2282C11.9187 33.9083 11.3653 34.4618 10.6852 34.4618C10.0762 34.4618 9.56998 34.0175 9.47079 33.4363C9.5158 33.4405 9.56136 33.4432 9.60748 33.4432C10.4112 33.4432 11.0627 32.7917 11.0627 31.988C11.0627 31.1842 10.4112 30.5327 9.60748 30.5327C8.80373 30.5327 8.15222 31.1842 8.15222 31.988C8.15222 32.0155 8.15472 32.0424 8.15639 32.0697V33.2282C8.15639 34.6226 9.29076 35.757 10.6852 35.757C12.0796 35.757 13.214 34.6226 13.214 33.2282V14.7221C12.9009 15.1741 12.4694 15.7309 11.9187 16.2979V33.2285V33.2282Z" fill="#613FDD"/>
<path d="M11.0361 26.7993V17.1164C10.6458 17.4406 10.214 17.7521 9.74091 18.0321V26.7995C9.74091 27.2941 9.33861 27.6964 8.8438 27.6964C8.51041 27.6964 8.21952 27.513 8.06477 27.2424C8.06894 27.2424 8.0731 27.243 8.07727 27.243C8.87075 27.243 9.51392 26.5998 9.51392 25.8063C9.51392 25.0128 8.87075 24.3697 8.07727 24.3697C7.2838 24.3697 6.64062 25.0128 6.64062 25.8063C6.64062 25.8635 6.64479 25.9199 6.65146 25.9755V26.7993C6.65146 28.0081 7.63497 28.9916 8.8438 28.9916C10.0526 28.9916 11.0361 28.0081 11.0361 26.7993Z" fill="#613FDD"/>
<path d="M1.84148 16.4243C2.39241 16.4763 3.00752 16.5127 3.65042 16.5127C5.23431 16.5127 6.9863 16.2918 8.35904 15.54C8.95637 15.2127 9.47063 14.854 9.91127 14.4895C10.8945 13.6758 11.3621 12.3816 11.0584 11.142C11.0509 11.1111 11.0431 11.0811 11.0354 11.0522C10.8887 11.3787 10.0068 13.1607 7.73699 14.404C6.00834 15.3508 3.37759 15.2683 1.96317 15.1346C1.58227 15.0988 1.29527 14.7821 1.29527 14.3981C1.29527 14.1986 1.37362 14.0117 1.51559 13.8714C1.61616 13.7722 1.74007 13.7077 1.87426 13.678C1.89677 14.3576 2.45353 14.9021 3.13866 14.9021C3.86879 14.9021 4.45473 14.2842 4.40166 13.5427C4.3636 13.0076 3.97714 12.5453 3.45816 12.4103C3.30285 12.37 3.15172 12.3611 3.0078 12.3758L2.06263 12.363C1.36917 12.35 0.719055 12.6931 0.32065 13.2971C0.177013 13.5149 0.0792178 13.7619 0.033654 14.0189C-0.182496 15.2386 0.668491 16.3135 1.84176 16.424L1.84148 16.4243Z" fill="#613FDD"/>
<path d="M19.213 6.70618C19.7731 7.75331 18.5695 8.46983 17.7171 8.72793C17.678 8.49178 17.7385 8.20617 17.8235 7.98168C18.0611 7.35407 18.589 6.93038 19.2127 6.70618H19.213Z" fill="white"/>
<path d="M9.79573 6.70618C9.23563 7.75331 10.4392 8.46983 11.2916 8.72793C11.3307 8.49178 11.2702 8.20617 11.1851 7.98168C10.9476 7.35407 10.4197 6.93038 9.796 6.70618H9.79573Z" fill="white"/>
<path d="M40.2552 26.5V10.66H42.5542V18.052L49.1872 10.66H52.0472L45.0402 18.393L52.5642 26.5H49.6162L42.5542 18.932V26.5H40.2552ZM54.1126 26.5V14.62H56.1586V17.502L55.8726 17.128C56.0193 16.7467 56.21 16.3983 56.4446 16.083C56.6793 15.7603 56.9506 15.4963 57.2586 15.291C57.5593 15.071 57.893 14.9023 58.2596 14.785C58.6336 14.6603 59.015 14.587 59.4036 14.565C59.7923 14.5357 60.1663 14.554 60.5256 14.62V16.776C60.137 16.6733 59.7043 16.644 59.2276 16.688C58.7583 16.732 58.3256 16.8823 57.9296 17.139C57.5556 17.381 57.2586 17.6743 57.0386 18.019C56.826 18.3637 56.672 18.7487 56.5766 19.174C56.4813 19.592 56.4336 20.0357 56.4336 20.505V26.5H54.1126ZM65.6317 26.83C64.7517 26.83 64.0147 26.6687 63.4207 26.346C62.8267 26.016 62.3757 25.5833 62.0677 25.048C61.767 24.5053 61.6167 23.9113 61.6167 23.266C61.6167 22.6647 61.723 22.1367 61.9357 21.682C62.1484 21.2273 62.4637 20.8423 62.8817 20.527C63.2997 20.2043 63.813 19.944 64.4217 19.746C64.9497 19.592 65.5474 19.4563 66.2147 19.339C66.882 19.2217 67.5824 19.1117 68.3157 19.009C69.0564 18.9063 69.7897 18.8037 70.5157 18.701L69.6797 19.163C69.6944 18.2317 69.4964 17.5423 69.0857 17.095C68.6824 16.6403 67.9857 16.413 66.9957 16.413C66.3724 16.413 65.8004 16.5597 65.2797 16.853C64.759 17.139 64.396 17.6157 64.1907 18.283L62.0457 17.623C62.339 16.6037 62.8964 15.7933 63.7177 15.192C64.5464 14.5907 65.6464 14.29 67.0177 14.29C68.081 14.29 69.005 14.4733 69.7897 14.84C70.5817 15.1993 71.161 15.7713 71.5277 16.556C71.7184 16.9447 71.8357 17.3553 71.8797 17.788C71.9237 18.2207 71.9457 18.6863 71.9457 19.185V26.5H69.9107V23.783L70.3067 24.135C69.8154 25.0443 69.1884 25.7227 68.4257 26.17C67.6704 26.61 66.739 26.83 65.6317 26.83ZM66.0387 24.949C66.6914 24.949 67.2524 24.8353 67.7217 24.608C68.191 24.3733 68.5687 24.0763 68.8547 23.717C69.1407 23.3577 69.3277 22.9837 69.4157 22.595C69.5404 22.243 69.61 21.847 69.6247 21.407C69.6467 20.967 69.6577 20.615 69.6577 20.351L70.4057 20.626C69.6797 20.736 69.0197 20.835 68.4257 20.923C67.8317 21.011 67.2927 21.099 66.8087 21.187C66.332 21.2677 65.9067 21.3667 65.5327 21.484C65.2174 21.594 64.935 21.726 64.6857 21.88C64.4437 22.034 64.2494 22.221 64.1027 22.441C63.9634 22.661 63.8937 22.9287 63.8937 23.244C63.8937 23.552 63.9707 23.838 64.1247 24.102C64.2787 24.3587 64.5134 24.564 64.8287 24.718C65.144 24.872 65.5474 24.949 66.0387 24.949ZM74.7911 26.5L74.8021 10.66H77.1341V20.34L81.7981 14.62H84.7241L79.7961 20.56L85.2301 26.5H82.1061L77.1341 20.78V26.5H74.7911ZM91.3934 26.83C90.2127 26.83 89.175 26.5733 88.2804 26.06C87.393 25.5393 86.7 24.817 86.2014 23.893C85.71 22.9617 85.4644 21.8837 85.4644 20.659C85.4644 19.361 85.7064 18.2353 86.1904 17.282C86.6817 16.3287 87.3637 15.5917 88.2364 15.071C89.109 14.5503 90.1247 14.29 91.2834 14.29C92.4934 14.29 93.5237 14.5723 94.3744 15.137C95.225 15.6943 95.8594 16.49 96.2774 17.524C96.7027 18.558 96.8714 19.7863 96.7834 21.209H94.4844V20.373C94.4697 18.9943 94.2057 17.975 93.6924 17.315C93.1864 16.655 92.4127 16.325 91.3714 16.325C90.22 16.325 89.3547 16.688 88.7754 17.414C88.196 18.14 87.9064 19.1887 87.9064 20.56C87.9064 21.8653 88.196 22.8773 88.7754 23.596C89.3547 24.3073 90.1907 24.663 91.2834 24.663C92.002 24.663 92.6217 24.5017 93.1424 24.179C93.6704 23.849 94.081 23.3797 94.3744 22.771L96.6294 23.486C96.1674 24.5493 95.467 25.3743 94.5284 25.961C93.5897 26.5403 92.5447 26.83 91.3934 26.83ZM87.1584 21.209V19.416H95.6394V21.209H87.1584ZM107.267 26.5V20.659C107.267 20.197 107.227 19.724 107.146 19.24C107.073 18.7487 106.926 18.294 106.706 17.876C106.493 17.458 106.189 17.1207 105.793 16.864C105.404 16.6073 104.895 16.479 104.264 16.479C103.853 16.479 103.465 16.5487 103.098 16.688C102.731 16.82 102.409 17.0363 102.13 17.337C101.859 17.6377 101.642 18.0337 101.481 18.525C101.327 19.0163 101.25 19.614 101.25 20.318L99.82 19.779C99.82 18.701 100.022 17.7513 100.425 16.93C100.828 16.1013 101.408 15.456 102.163 14.994C102.918 14.532 103.831 14.301 104.902 14.301C105.723 14.301 106.413 14.433 106.97 14.697C107.527 14.961 107.978 15.3093 108.323 15.742C108.675 16.1673 108.943 16.633 109.126 17.139C109.309 17.645 109.434 18.14 109.5 18.624C109.566 19.108 109.599 19.5333 109.599 19.9V26.5H107.267ZM98.918 26.5V14.62H100.975V18.052H101.25V26.5H98.918Z" fill="#0F0C1B"/>
</svg>
