<svg width="21" height="20" viewBox="0 0 21 20" fill="none" xmlns="http://www.w3.org/2000/svg">
<g clip-path="url(#clip0_253_729)">
<path d="M11.266 10.1369L16.8992 6.58414C16.6863 6.25269 16.397 5.97708 16.0557 5.78037L11.9032 3.38359C11.1393 2.94241 10.198 2.94241 9.43407 3.38359L5.28152 5.78037C4.98179 5.95356 4.72187 6.18793 4.51868 6.46822L10.3458 10.1369C10.6272 10.3133 10.9846 10.3133 11.266 10.1369ZM9.70091 6.30129C9.70074 5.76685 10.1339 5.33344 10.6683 5.33327C11.2028 5.3331 11.6362 5.76623 11.6364 6.3007C11.6365 6.83518 11.2034 7.26856 10.6689 7.26873C10.6688 7.26873 10.6687 7.26873 10.6686 7.26873C10.1343 7.26871 9.70106 6.83562 9.70091 6.30129Z" fill="#613FDD"/>
<path d="M10.6129 10.6192C10.448 10.5939 10.2901 10.5351 10.1489 10.4464L4.32448 6.77921C4.14144 7.13091 4.04585 7.52153 4.04578 7.91799V12.713C4.046 13.5951 4.51669 14.4102 5.28062 14.8513L9.43316 17.2486C9.79243 17.4563 10.1983 17.5699 10.6132 17.5789C10.6132 17.5789 10.6132 17.5774 10.6132 17.5765L10.6129 10.6192ZM5.54776 14.0098C5.16055 13.7246 4.85667 13.0878 4.85667 12.5828C4.85667 12.0779 5.16205 11.8713 5.54926 12.131C5.94832 12.3978 6.28098 13.0519 6.28098 13.5838C6.28098 14.1157 5.94682 14.3048 5.54776 14.0098ZM8.51615 12.6024C8.12895 12.316 7.82356 11.6804 7.82356 11.1754C7.82356 10.6705 8.12895 10.4639 8.51615 10.7236C8.91521 10.9904 9.24758 11.6445 9.24758 12.1779C9.24758 12.7112 8.91521 12.8974 8.51615 12.6024Z" fill="#613FDD"/>
<path d="M17.0722 6.90689L11.4615 10.4478C11.3155 10.5396 11.1517 10.5995 10.981 10.6236V17.5613C11.3058 17.5199 11.6192 17.4142 11.9027 17.2503L16.0553 14.8526C16.8193 14.4115 17.29 13.5963 17.2901 12.7141V7.91937C17.29 7.57024 17.2157 7.22514 17.0722 6.90689ZM12.5757 16.1491C12.1885 16.4077 11.8831 16.2022 11.8831 15.6973C11.8831 15.1924 12.1885 14.5567 12.5757 14.2703C12.9748 13.9739 13.3072 14.1615 13.3072 14.6949C13.3072 15.2283 12.9748 15.8826 12.5757 16.1491ZM12.5757 12.6317C12.1885 12.8902 11.8831 12.6847 11.8831 12.1798C11.8831 11.6749 12.1885 11.0393 12.5757 10.7528C12.9748 10.4576 13.3069 10.644 13.3069 11.1762C13.3069 11.7084 12.9748 12.3651 12.5757 12.6317ZM15.8225 14.0483C15.4353 14.3068 15.1299 14.1016 15.1299 13.5964C15.1299 13.0912 15.4353 12.4559 15.8225 12.1694C16.2216 11.8744 16.554 12.0606 16.554 12.594C16.554 13.1274 16.2216 13.7817 15.8225 14.0483ZM15.8225 10.5308C15.4353 10.7908 15.1299 10.5833 15.1299 10.0793C15.1299 9.57523 15.4353 8.93868 15.8225 8.65227C16.2216 8.3558 16.554 8.54377 16.554 9.07684C16.554 9.60991 16.2216 10.2643 15.8225 10.5308Z" fill="#613FDD"/>
</g>
<defs>
<clipPath id="clip0_253_729">
<rect width="14.5277" height="14.5277" fill="white" transform="translate(3.40222 3.05301)"/>
</clipPath>
</defs>
</svg>
