<svg width="21" height="20" viewBox="0 0 21 20" fill="none" xmlns="http://www.w3.org/2000/svg">
<g clip-path="url(#clip0_253_746)">
<path d="M15.2055 8.29927H5.58761C5.51869 8.29929 5.45074 8.28302 5.3893 8.25177C5.32787 8.22053 5.27469 8.1752 5.23411 8.11949C5.19353 8.06378 5.1667 7.99926 5.15581 7.9312C5.14491 7.86315 5.15026 7.79348 5.17142 7.72788L6.58 3.35612C6.6084 3.26809 6.66399 3.19133 6.73878 3.13689C6.81356 3.08245 6.90369 3.05313 6.99619 3.05316H13.7969C13.8894 3.05313 13.9795 3.08245 14.0543 3.13689C14.1291 3.19133 14.1847 3.26809 14.2131 3.35612L15.6217 7.72788C15.6428 7.79348 15.6482 7.86315 15.6373 7.9312C15.6264 7.99926 15.5996 8.06378 15.559 8.11949C15.5184 8.1752 15.4652 8.22053 15.4038 8.25177C15.3424 8.28302 15.2744 8.29929 15.2055 8.29927ZM16.9542 10.048H3.83891C3.72296 10.048 3.61177 10.0019 3.52978 9.91993C3.44779 9.83794 3.40173 9.72675 3.40173 9.6108C3.40173 9.49485 3.44779 9.38366 3.52978 9.30167C3.61177 9.21968 3.72296 9.17362 3.83891 9.17362H16.9542C17.0701 9.17362 17.1813 9.21968 17.2633 9.30167C17.3453 9.38366 17.3914 9.49485 17.3914 9.6108C17.3914 9.72675 17.3453 9.83794 17.2633 9.91993C17.1813 10.0019 17.0701 10.048 16.9542 10.048ZM13.894 16.1684C13.3752 16.1684 12.868 16.0146 12.4367 15.7264C12.0053 15.4381 11.6691 15.0285 11.4706 14.5492C11.272 14.0699 11.2201 13.5425 11.3213 13.0336C11.4225 12.5248 11.6723 12.0574 12.0392 11.6906C12.406 11.3238 12.8734 11.0739 13.3822 10.9727C13.891 10.8715 14.4185 10.9235 14.8978 11.122C15.3771 11.3205 15.7867 11.6567 16.0749 12.0881C16.3632 12.5195 16.517 13.0266 16.517 13.5454C16.5163 14.2408 16.2397 14.9076 15.748 15.3994C15.2562 15.8912 14.5894 16.1677 13.894 16.1684ZM13.894 11.7967C13.5481 11.7967 13.21 11.8992 12.9224 12.0914C12.6349 12.2835 12.4107 12.5566 12.2784 12.8762C12.146 13.1957 12.1114 13.5473 12.1789 13.8865C12.2463 14.2258 12.4129 14.5373 12.6574 14.7819C12.902 15.0265 13.2136 15.193 13.5528 15.2605C13.892 15.328 14.2436 15.2933 14.5632 15.161C14.8827 15.0286 15.1558 14.8045 15.3479 14.5169C15.5401 14.2293 15.6427 13.8912 15.6427 13.5454C15.6427 13.0816 15.4584 12.6368 15.1305 12.3089C14.8025 11.9809 14.3577 11.7967 13.894 11.7967ZM6.89914 16.1684C6.38035 16.1684 5.87321 16.0146 5.44185 15.7264C5.01049 15.4381 4.67429 15.0285 4.47575 14.5492C4.27722 14.0699 4.22528 13.5425 4.32649 13.0336C4.4277 12.5248 4.67752 12.0574 5.04436 11.6906C5.4112 11.3238 5.87859 11.0739 6.38741 10.9727C6.89623 10.8715 7.42364 10.9235 7.90294 11.122C8.38224 11.3205 8.79191 11.6567 9.08013 12.0881C9.36836 12.5195 9.5222 13.0266 9.5222 13.5454C9.5215 14.2408 9.24492 14.9076 8.75315 15.3994C8.26139 15.8912 7.5946 16.1677 6.89914 16.1684ZM6.89914 11.7967C6.55328 11.7967 6.21519 11.8992 5.92761 12.0914C5.64004 12.2835 5.4159 12.5566 5.28355 12.8762C5.15119 13.1957 5.11656 13.5473 5.18404 13.8865C5.25151 14.2258 5.41806 14.5373 5.66262 14.7819C5.90718 15.0265 6.21877 15.193 6.55799 15.2605C6.8972 15.328 7.24881 15.2933 7.56834 15.161C7.88787 15.0286 8.16098 14.8045 8.35313 14.5169C8.54528 14.2293 8.64784 13.8912 8.64784 13.5454C8.64784 13.0816 8.46361 12.6368 8.13566 12.3089C7.80772 11.9809 7.36293 11.7967 6.89914 11.7967ZM11.7081 13.9826C11.5921 13.9826 11.4809 13.9365 11.3989 13.8545C11.317 13.7725 11.2709 13.6613 11.2709 13.5454C11.2709 13.3135 11.1788 13.0911 11.0148 12.9271C10.8508 12.7632 10.6284 12.671 10.3965 12.671C10.1647 12.671 9.94226 12.7632 9.77829 12.9271C9.61432 13.0911 9.5222 13.3135 9.5222 13.5454C9.5222 13.6613 9.47614 13.7725 9.39415 13.8545C9.31216 13.9365 9.20097 13.9826 9.08502 13.9826C8.96907 13.9826 8.85788 13.9365 8.77589 13.8545C8.6939 13.7725 8.64784 13.6613 8.64784 13.5454C8.64784 13.0816 8.83208 12.6368 9.16003 12.3089C9.48797 11.9809 9.93276 11.7967 10.3965 11.7967C10.8603 11.7967 11.3051 11.9809 11.6331 12.3089C11.961 12.6368 12.1453 13.0816 12.1453 13.5454C12.1453 13.6613 12.0992 13.7725 12.0172 13.8545C11.9352 13.9365 11.824 13.9826 11.7081 13.9826Z" fill="#613FDD"/>
</g>
<defs>
<clipPath id="clip0_253_746">
<rect width="15.7383" height="15.7383" fill="white" transform="translate(2.19141 1.84238)"/>
</clipPath>
</defs>
</svg>
