<svg width="20" height="20" viewBox="0 0 20 20" fill="none" xmlns="http://www.w3.org/2000/svg">
<g clip-path="url(#clip0_253_742)">
<path d="M7.51201 14.9958C7.77401 15.2259 8.04446 15.4632 8.32266 15.7093C8.32455 15.7109 8.32649 15.7126 8.32843 15.7143L9.25391 16.5137C9.37791 16.6209 9.5318 16.6744 9.6857 16.6744C9.83959 16.6744 9.99353 16.6208 10.1175 16.5137L11.0428 15.7143C11.0448 15.7126 11.0467 15.711 11.0486 15.7093C12.8806 14.0891 14.2542 12.8487 15.248 11.6389C16.4087 10.226 16.9494 8.94844 16.9494 7.61847C16.9494 5.21225 15.0645 3.32742 12.6584 3.32742C11.577 3.32742 10.5084 3.73464 9.6857 4.44053C8.86277 3.7346 7.79422 3.32742 6.71273 3.32742C4.3065 3.32738 2.42163 5.21225 2.42163 7.61843C2.42163 10.527 4.4467 12.3048 7.51201 14.9958ZM7.0435 8.67998H8.80477V6.91862H10.5661V8.67998H12.3275V10.4413H10.5661V12.2026H8.80477V10.4413H7.0435V8.67998Z" fill="#613FDD"/>
</g>
<defs>
<clipPath id="clip0_253_742">
<rect width="14.5277" height="14.5277" fill="white" transform="translate(2.4209 2.73618)"/>
</clipPath>
</defs>
</svg>
