<svg width="20" height="20" viewBox="0 0 20 20" fill="none" xmlns="http://www.w3.org/2000/svg">
<g clip-path="url(#clip0_253_736)">
<path d="M10.3342 3.0524C6.3226 3.0524 3.07031 6.30469 3.07031 10.3162C3.07031 14.3278 6.3226 17.5801 10.3342 17.5801C14.3457 17.5801 17.598 14.3278 17.598 10.3162C17.598 6.30469 14.3457 3.0524 10.3342 3.0524ZM12.4206 13.1799C12.1038 13.5655 11.6913 13.8256 11.21 13.9571C11.0008 14.0139 10.9051 14.1245 10.9171 14.3427C10.926 14.558 10.9171 14.7702 10.9141 14.9854C10.9141 15.1767 10.8154 15.2784 10.6271 15.2844C10.5045 15.2873 10.382 15.2903 10.2594 15.2903C10.1518 15.2903 10.0442 15.2903 9.93659 15.2873C9.73332 15.2844 9.63767 15.1678 9.63767 14.9705C9.63468 14.815 9.63468 14.6566 9.63468 14.5012C9.63169 14.1544 9.61973 14.1425 9.28793 14.0887C8.86345 14.0199 8.44496 13.9243 8.05636 13.7359C7.75146 13.5865 7.71858 13.5117 7.80526 13.1889C7.87103 12.9498 7.93679 12.7106 8.01152 12.4745C8.06533 12.3011 8.11614 12.2234 8.20881 12.2234C8.26262 12.2234 8.33137 12.2503 8.42404 12.2981C8.85449 12.5223 9.31184 12.6478 9.79311 12.7076C9.87382 12.7166 9.95452 12.7226 10.0352 12.7226C10.2594 12.7226 10.4776 12.6807 10.6899 12.5881C11.225 12.3549 11.3086 11.7361 10.8573 11.3655C10.7048 11.2399 10.5285 11.1473 10.3461 11.0665C9.8768 10.8603 9.38956 10.7048 8.94715 10.4388C8.22974 10.0084 7.77537 9.41947 7.82918 8.54662C7.88896 7.56017 8.44795 6.94439 9.35369 6.61557C9.72734 6.48105 9.73033 6.48404 9.73033 6.09544C9.73033 5.96392 9.72734 5.83239 9.73332 5.69787C9.74229 5.40493 9.79012 5.35411 10.0831 5.34514C10.1159 5.34514 10.1518 5.34514 10.1847 5.34514C10.2415 5.34514 10.2983 5.34514 10.3551 5.34514C10.379 5.34514 10.4029 5.34514 10.4238 5.34514C10.9798 5.34514 10.9798 5.36906 10.9828 5.96989C10.9858 6.4123 10.9858 6.4123 11.4252 6.48105C11.763 6.53486 12.0829 6.6335 12.3937 6.77101C12.5641 6.84574 12.6299 6.96531 12.5761 7.14765C12.4984 7.41668 12.4236 7.6887 12.3399 7.95475C12.2861 8.11617 12.2353 8.1909 12.1397 8.1909C12.0859 8.1909 12.0201 8.16997 11.9364 8.12812C11.5059 7.91888 11.0546 7.81724 10.5823 7.81724C10.5225 7.81724 10.4597 7.82023 10.3999 7.82322C10.2594 7.83219 10.1219 7.85012 9.9904 7.90692C9.52407 8.11019 9.44934 8.62434 9.84691 8.9412C10.0472 9.10261 10.2774 9.21621 10.5135 9.31485C10.926 9.48524 11.3385 9.64964 11.7301 9.86487C12.9617 10.5524 13.2965 12.1158 12.4206 13.1799Z" fill="#613FDD"/>
</g>
<defs>
<clipPath id="clip0_253_736">
<rect width="14.5277" height="14.5277" fill="white" transform="translate(3.06885 3.05301)"/>
</clipPath>
</defs>
</svg>
