<svg width="20" height="20" viewBox="0 0 20 20" fill="none" xmlns="http://www.w3.org/2000/svg">
<path d="M11.3835 11.8254C11.1385 12.8145 9.47775 12.2791 8.93326 12.143L9.36885 10.3915C9.91335 10.5277 11.6376 10.7908 11.3835 11.8254ZM9.9678 7.99577L9.5685 9.58386C10.0223 9.69276 11.4107 10.1556 11.6376 9.25716C11.8645 8.32247 10.4215 8.10467 9.9678 7.99577ZM17.0463 12.0613C16.0752 15.9454 12.1367 18.3139 8.24356 17.352C4.35949 16.381 1.98186 12.4425 2.95287 8.55839C3.92389 4.66527 7.86242 2.30579 11.7556 3.26773C15.6396 4.23875 18.0173 8.17727 17.0463 12.0613ZM7.61739 11.5259C7.58109 11.6257 7.48127 11.7709 7.2544 11.7165C7.2181 11.7165 6.6736 11.5713 6.6736 11.5713L6.2743 12.4788L7.30884 12.7329C7.50849 12.7873 7.68999 12.8327 7.88057 12.8871L7.55387 14.203L8.34339 14.4026L8.67008 13.0959C8.88788 13.1594 9.09661 13.2048 9.30533 13.2592L8.97863 14.5569L9.77723 14.7566L10.1039 13.4407C11.4652 13.6948 12.4906 13.595 12.9172 12.3608C13.262 11.3716 12.899 10.7999 12.1821 10.4278C12.6994 10.3099 13.0896 9.965 13.1985 9.25716C13.3437 8.29524 12.6086 7.7689 11.6013 7.43313L11.928 6.11726L11.1294 5.91761L10.8118 7.1881C10.603 7.13365 10.3852 7.08828 10.1674 7.03383L10.4851 5.75426L9.69555 5.55461L9.36885 6.8614C9.19643 6.8251 9.02401 6.77973 8.86066 6.74343L7.76259 6.46211L7.55387 7.31515C7.55387 7.31515 8.13466 7.45127 8.13466 7.46035C8.45229 7.54202 8.50674 7.75075 8.50674 7.92317L7.60832 11.5077L7.61739 11.5259Z" fill="#613FDD"/>
</svg>
