<svg width="20" height="20" viewBox="0 0 20 20" fill="none" xmlns="http://www.w3.org/2000/svg">
<g clip-path="url(#clip0_253_749)">
<path fill-rule="evenodd" clip-rule="evenodd" d="M8.80899 13.1396C7.72667 13.6096 6.99777 14.6378 6.73582 16.0526C8.44639 15.7354 9.43463 14.7412 9.7487 13.0271C9.48052 13.0542 9.21914 13.0681 8.96373 13.0722L8.80899 13.1396ZM9.69117 12.5807C8.42959 9.78497 6.3251 8.57075 3.27454 8.87551C4.53617 11.6706 6.64037 12.8848 9.69117 12.5807ZM10.0187 12.2197C9.68402 11.5164 9.2921 10.909 8.84286 10.398L8.76504 10.1897C7.81477 7.64184 8.22437 5.20086 10.0187 2.7356C11.8227 5.21335 12.2284 7.66613 11.2592 10.2244L11.1928 10.4008C10.7444 10.9104 10.3531 11.5171 10.0187 12.2197ZM10.3462 12.5807C13.3976 12.8848 15.5015 11.6706 16.7631 8.87551C13.7117 8.57075 11.608 9.78567 10.3462 12.5807ZM10.2889 13.0271C10.6031 14.7412 11.5912 15.7354 13.3018 16.0526C13.0399 14.6378 12.311 13.6096 11.2284 13.1396L11.0739 13.0723C10.8183 13.0681 10.5572 13.0542 10.2889 13.0271Z" fill="#613FDD"/>
</g>
<defs>
<clipPath id="clip0_253_749">
<rect width="13.317" height="13.317" fill="white" transform="translate(3.35938 2.73618)"/>
</clipPath>
</defs>
</svg>
